<svg xmlns="http://www.w3.org/2000/svg" aria-hidden="true" style="position:absolute;width:0;height:0;overflow:hidden">
  <defs>
    <symbol id="icon-logo-header" viewBox="0 0 73 32">
      <path d="m13.059 18.895-.074-.145c-.28-.538-.956-.887-1.556-.805-.515.071-.944.499-1.095 1.104-.162.652-.045 1.28.189 1.891.383.996.988 1.849 1.734 2.603.516.522.927.513 1.435-.018.705-.737 1.277-1.564 1.674-2.507.234-.555.406-1.128.432-1.735.019-.439-.038-.861-.287-1.238-.317-.478-.839-.619-1.352-.367a1.994 1.994 0 0 0-.77.682c-.114.167-.214.343-.332.534zm9.929 2.8a5.153 5.153 0 0 1-.575 2.331c-.642 1.234-1.571 2.19-2.814 2.831-1.226.632-2.482.704-3.765.201a28.733 28.733 0 0 1-1.548-.649c-.923-.425-1.842-.421-2.786-.068-.663.248-1.336.475-2.015.671a5.484 5.484 0 0 1-2.163.194c-.635-.072-1.171-.354-1.636-.779-.593-.543-1.067-1.177-1.366-1.924-.384-.958-.291-1.882.267-2.755.437-.683 1.028-1.229 1.599-1.793.416-.41.823-.831 1.206-1.271.442-.508.706-1.122.924-1.752.203-.585.387-1.176.588-1.761.145-.423.41-.775.673-1.132.632-.859 1.533-1.234 2.528-1.455 1.18-.262 2.207.076 3.085.852.54.477 1.007 1.036 1.509 1.556.856.886 1.763 1.713 2.78 2.411.506.348 1.038.659 1.54 1.013.718.506 1.324 1.119 1.694 1.933.194.427.27.879.277 1.345zM11.407 9.514a4.786 4.786 0 0 1-.426 2.035c-.334.714-.816 1.278-1.61 1.498-.653.181-1.256.035-1.818-.316-.739-.462-1.239-1.132-1.611-1.902a6.642 6.642 0 0 1-.637-3.54c.065-.731.272-1.414.68-2.035.704-1.071 1.97-1.374 3.07-.722.714.423 1.214 1.041 1.594 1.762.518.983.765 2.035.757 3.221zM19.092 7.554c.001 1.34-.246 2.464-.856 3.493-.341.575-.777 1.065-1.379 1.38-.881.46-1.851.292-2.542-.428-.547-.57-.844-1.263-1.004-2.023-.275-1.312-.133-2.594.332-3.841.225-.604.554-1.156 1.026-1.601.435-.411.931-.732 1.549-.783.786-.065 1.403.268 1.897.857.509.607.762 1.327.889 2.095.054.331.071.669.089.853zM.663 14.014c.011-.598.125-1.161.481-1.649.465-.638 1.116-.873 1.885-.825.778.049 1.441.385 2.035.859 1.059.845 1.76 1.923 2.039 3.257.123.59.133 1.186-.074 1.761-.355.988-1.165 1.499-2.22 1.417-.657-.051-1.235-.313-1.765-.687-1.143-.806-1.879-1.901-2.252-3.24-.08-.287-.088-.595-.129-.893zM24.713 12.147c-.177 1.859-.933 3.296-2.4 4.331a2.832 2.832 0 0 1-1.366.505c-.846.086-1.615-.39-1.933-1.205-.28-.716-.263-1.45-.087-2.179.338-1.404 1.093-2.538 2.279-3.37a2.616 2.616 0 0 1 1.761-.465c.745.062 1.374.621 1.592 1.442.088.332.113.681.154.941zM59.579 18.312h1.711l-2.256 2.73 2.455 2.964h-1.762L57.4 21.118v2.888h-1.553v-5.694H57.4v2.765l2.18-2.765zM54.772 21.149a3.8 3.8 0 0 1-.193 1.263 2.5 2.5 0 0 1-.555.932 2.335 2.335 0 0 1-.876.57 3.22 3.22 0 0 1-1.151.194c-.401 0-.769-.064-1.105-.194a2.458 2.458 0 0 1-.871-.57 2.656 2.656 0 0 1-.571-.932 3.72 3.72 0 0 1-.198-1.263c0-.631.112-1.166.336-1.604s.543-.771.958-.998c.414-.227.908-.341 1.482-.341.533 0 1.005.114 1.416.341.414.227.738.56.972.998.238.438.357.973.357 1.604zm-3.937 0c0 .373.041.688.122.942s.209.446.382.576c.173.129.399.194.678.194.275 0 .497-.064.667-.194.173-.129.298-.321.377-.576.081-.255.122-.569.122-.942 0-.377-.041-.689-.122-.937-.078-.251-.204-.44-.377-.565s-.399-.188-.678-.188c-.411 0-.709.141-.896.423-.183.282-.275.704-.275 1.268zM48.176 18.312v5.694h-1.558v-4.528h-2.063v4.528h-1.553v-5.694h5.174zM39.237 18.195c.764 0 1.35.166 1.757.499s.611.839.611 1.518v3.794H40.52l-.3-.774h-.041c-.163.204-.329.37-.499.499s-.365.224-.586.285a3.059 3.059 0 0 1-.805.092c-.336 0-.638-.064-.907-.194a1.433 1.433 0 0 1-.626-.591c-.153-.268-.229-.608-.229-1.019 0-.604.212-1.049.637-1.334.424-.289 1.061-.448 1.91-.479l.988-.031v-.25c0-.299-.078-.518-.234-.657s-.373-.209-.652-.209c-.275 0-.545.039-.81.117s-.53.177-.794.295l-.514-1.049c.302-.16.64-.285 1.014-.377a4.902 4.902 0 0 1 1.166-.137zm.825 3.173-.601.02c-.502.014-.852.104-1.049.27a.821.821 0 0 0-.29.657c0 .238.07.407.209.509.139.098.321.148.545.148.333 0 .613-.098.84-.295.231-.197.346-.477.346-.84v-.469zM35.357 24.006h-1.574v-6.132H31.96l-.132 1.044c-.047.377-.097.757-.148 1.141-.051.384-.105.749-.163 1.095-.054.346-.109.65-.163.912a4.45 4.45 0 0 1-.362 1.11 1.642 1.642 0 0 1-.616.693c-.258.16-.596.239-1.014.239a2.5 2.5 0 0 1-.753-.112v-1.294c.088.031.177.056.265.076.088.017.185.025.29.025a.455.455 0 0 0 .336-.132c.092-.092.173-.246.244-.463.071-.221.143-.525.214-.912a110.107 110.107 0 0 0 .494-3.188c.071-.496.139-1.012.204-1.548h4.701v7.446zM70.341 8.659c.764 0 1.35.166 1.757.499s.611.839.611 1.518v3.794h-1.085l-.3-.774h-.041c-.163.204-.33.37-.499.499s-.365.224-.586.285a3.059 3.059 0 0 1-.805.092c-.336 0-.638-.065-.906-.194a1.433 1.433 0 0 1-.626-.591c-.153-.268-.229-.608-.229-1.019 0-.604.212-1.049.636-1.334.425-.289 1.061-.448 1.91-.479l.988-.031v-.25c0-.299-.078-.518-.234-.657s-.374-.209-.652-.209c-.275 0-.545.039-.81.117s-.529.177-.794.295l-.515-1.049c.302-.16.64-.285 1.013-.377a4.904 4.904 0 0 1 1.167-.137zm.825 3.173-.601.02c-.502.014-.852.104-1.049.27a.821.821 0 0 0-.29.657c0 .238.07.407.209.509.139.098.32.148.545.148.332 0 .613-.098.84-.295.231-.197.346-.477.346-.84v-.469zM65.492 8.776h1.711l-2.256 2.73 2.454 2.964h-1.762l-2.328-2.888v2.888h-1.553V8.776h1.553v2.765l2.18-2.765zM56.615 8.776v2.19h2.17v-2.19h1.553v5.694h-1.553v-2.348h-2.17v2.348h-1.553V8.776h1.553zM49.256 8.776v2.251c0 .115-.005.261-.015.438-.007.173-.017.35-.031.53a25.1 25.1 0 0 1-.072.774l2.628-3.993h1.869v5.694h-1.503v-2.271c0-.187.007-.392.021-.616.014-.227.029-.441.046-.642s.029-.351.036-.453l-2.618 3.983h-1.864V8.777h1.503zM46.898 9.943h-1.864v4.528h-1.553V9.943h-1.869V8.777h5.286v1.166zM38.423 8.659c.764 0 1.35.166 1.757.499s.611.839.611 1.518v3.794h-1.085l-.3-.774h-.041c-.163.204-.329.37-.499.499s-.365.224-.586.285a3.059 3.059 0 0 1-.805.092 2.07 2.07 0 0 1-.907-.194 1.433 1.433 0 0 1-.626-.591c-.153-.268-.229-.608-.229-1.019 0-.604.212-1.049.637-1.334.424-.289 1.061-.448 1.91-.479l.988-.031v-.25c0-.299-.078-.518-.234-.657s-.373-.209-.652-.209c-.275 0-.545.039-.81.117s-.53.177-.794.295l-.514-1.049c.302-.16.64-.285 1.014-.377a4.902 4.902 0 0 1 1.166-.137zm.825 3.173-.601.02c-.502.014-.852.104-1.049.27a.821.821 0 0 0-.29.657c0 .238.07.407.209.509.139.098.321.148.545.148.333 0 .613-.098.84-.295.231-.197.346-.477.346-.84v-.469zM35.485 14.47h-1.803l-1.732-2.816-1.732 2.816h-1.691l2.47-3.84-2.312-3.606h1.742l1.604 2.679 1.574-2.679h1.701l-2.338 3.692 2.516 3.753z"
      fill="#332C22"/>
    </symbol>
  </defs>
</svg>
