<svg width="302" height="131" viewBox="0 0 302 131" fill="none" xmlns="http://www.w3.org/2000/svg">
<path d="M53.138 77.5904C53.0174 77.3538 52.9255 77.1716 52.8313 76.9908C51.6703 74.7625 48.8727 73.3154 46.3886 73.6577C44.2554 73.9514 42.478 75.725 41.8535 78.2288C41.1804 80.9288 41.6665 83.5317 42.6376 86.0624C44.2218 90.1893 46.7304 93.7191 49.8203 96.8426C51.9573 99.0027 53.6616 98.9662 55.7649 96.7686C58.6851 93.7172 61.0548 90.2912 62.699 86.3864C63.6683 84.086 64.3817 81.7163 64.4899 79.2004C64.5683 77.3836 64.3341 75.6336 63.3 74.074C61.9865 72.0938 59.826 71.5101 57.701 72.5558C56.3798 73.2058 55.3356 74.1764 54.5111 75.3803C54.0385 76.0707 53.6255 76.8014 53.138 77.5904ZM94.2651 89.1912C94.2166 92.5941 93.4498 95.8359 91.883 98.8479C89.2238 103.958 85.3772 107.919 80.2273 110.575C75.1509 113.192 69.9485 113.492 64.6327 111.408C62.475 110.562 60.3236 109.688 58.2197 108.718C54.3972 106.956 50.5905 106.973 46.6814 108.437C43.9357 109.465 41.1492 110.403 38.3338 111.217C35.418 112.061 32.4166 112.369 29.3743 112.022C26.7443 111.722 24.5225 110.557 22.5975 108.794C20.1423 106.546 18.1776 103.921 16.938 100.825C15.3491 96.858 15.7309 93.0306 18.0441 89.4157C19.855 86.5855 22.3001 84.3273 24.6687 81.9913C26.3905 80.2932 28.0762 78.5495 29.6623 76.7255C31.4921 74.6202 32.5848 72.0798 33.4906 69.4697C34.3315 67.0481 35.0949 64.6001 35.9247 62.1746C36.5242 60.4222 37.6242 58.9645 38.7112 57.4871C41.328 53.9309 45.0607 52.3747 49.1823 51.4588C54.0678 50.3728 58.3255 51.7732 61.9587 54.9867C64.1942 56.9636 66.1293 59.2794 68.2101 61.4328C71.7543 65.1005 75.5138 68.526 79.7258 71.4192C81.8224 72.8596 84.0229 74.1505 86.1022 75.6139C89.0772 77.7081 91.5873 80.249 93.119 83.622C93.9214 85.3889 94.2382 87.2614 94.2651 89.1912Z" fill="#332C22"/>
<path d="M46.2956 38.7359C46.3038 41.4597 45.8211 44.401 44.5303 47.1645C43.149 50.1202 41.1505 52.4582 37.864 53.3678C35.1597 54.1168 32.663 53.5135 30.3357 52.0596C27.2737 50.1476 25.203 47.3727 23.6631 44.1813C21.4269 39.5465 20.565 34.6433 21.0234 29.5193C21.2941 26.4924 22.15 23.6632 23.8412 21.0897C26.7576 16.6518 31.9996 15.3974 36.5577 18.098C39.5149 19.8503 41.5865 22.4083 43.1615 25.3962C45.3081 29.4681 46.3307 33.8231 46.2956 38.7359Z" fill="#332C22"/>
<path d="M78.127 30.6208C78.1318 36.1709 77.1073 40.8276 74.5828 45.0881C73.1713 47.4708 71.366 49.4987 68.8699 50.803C65.2213 52.7097 61.2045 52.0112 58.3401 49.0295C56.0729 46.6694 54.8426 43.7963 54.1834 40.6521C53.045 35.2162 53.6325 29.9063 55.5575 24.7416C56.4892 22.2419 57.8502 19.9544 59.8065 18.109C61.6089 16.4086 63.6627 15.0767 66.2218 14.8641C69.4776 14.5937 72.0338 15.9736 74.0775 18.4123C76.1838 20.926 77.2357 23.907 77.7578 27.089C77.9828 28.4609 78.0506 29.8587 78.127 30.6208Z" fill="#332C22"/>
<path d="M1.79688 57.3752C1.84192 54.8964 2.315 52.5661 3.78878 50.5445C5.71435 47.9022 8.41034 46.9277 11.5956 47.1272C14.8185 47.3291 17.562 48.7214 20.0252 50.6853C24.4127 54.1839 27.3144 58.6502 28.4688 64.1766C28.9799 66.6213 29.0179 69.089 28.1626 71.4703C26.6923 75.5645 23.3382 77.6789 18.9668 77.3404C16.2472 77.1299 13.8533 76.0424 11.6569 74.4943C6.92222 71.1568 3.87393 66.6203 2.33043 61.0752C1.99904 59.8848 1.96687 58.6108 1.79688 57.3752Z" fill="#332C22"/>
<path d="M101.414 49.642C100.68 57.341 97.5479 63.2924 91.474 67.5789C89.7869 68.7693 87.8898 69.4582 85.8177 69.6683C82.3139 70.0236 79.1279 68.051 77.8106 64.6756C76.6529 61.7083 76.7202 58.6718 77.4486 55.6506C78.85 49.8353 81.976 45.1377 86.8884 41.694C89.0629 40.1695 91.5302 39.5471 94.1831 39.7685C97.2672 40.0257 99.8744 42.3397 100.776 45.7425C101.14 47.1185 101.244 48.5627 101.414 49.642Z" fill="#332C22"/>
<path d="M245.815 75.1787H252.903L243.558 86.485L253.726 98.7616H246.427L236.787 86.8014V98.7616H230.354V75.1787H236.787V86.6327L245.815 75.1787Z" fill="#332C22"/>
<path d="M225.903 86.9286C225.903 88.8973 225.636 90.6411 225.101 92.1599C224.581 93.6786 223.815 94.9653 222.802 96.02C221.804 97.0607 220.594 97.8482 219.174 98.3825C217.768 98.9169 216.179 99.1841 214.407 99.1841C212.747 99.1841 211.222 98.9169 209.829 98.3825C208.451 97.8482 207.249 97.0607 206.222 96.02C205.21 94.9653 204.422 93.6786 203.86 92.1599C203.311 90.6411 203.037 88.8973 203.037 86.9286C203.037 84.3129 203.501 82.0981 204.429 80.284C205.357 78.4699 206.679 77.0918 208.395 76.1496C210.111 75.2074 212.157 74.7363 214.533 74.7363C216.741 74.7363 218.696 75.2074 220.397 76.1496C222.113 77.0918 223.456 78.4699 224.426 80.284C225.411 82.0981 225.903 84.3129 225.903 86.9286ZM209.597 86.9286C209.597 88.4755 209.766 89.7762 210.104 90.8309C210.441 91.8856 210.968 92.6802 211.686 93.2145C212.403 93.7489 213.338 94.0161 214.491 94.0161C215.63 94.0161 216.551 93.7489 217.254 93.2145C217.972 92.6802 218.492 91.8856 218.815 90.8309C219.153 89.7762 219.322 88.4755 219.322 86.9286C219.322 85.3676 219.153 84.0739 218.815 83.0473C218.492 82.0067 217.972 81.2262 217.254 80.7059C216.537 80.1856 215.602 79.9254 214.449 79.9254C212.747 79.9254 211.51 80.509 210.736 81.6762C209.977 82.8434 209.597 84.5942 209.597 86.9286Z" fill="#332C22"/>
<path d="M198.586 75.1787V98.7616H192.131V80.0092H183.588V98.7616H177.154V75.1787H198.586Z" fill="#332C22"/>
<path d="M161.568 74.6924C164.732 74.6924 167.158 75.3814 168.845 76.7596C170.533 78.1377 171.376 80.233 171.376 83.0455V98.7605H166.883L165.639 95.5542H165.47C164.795 96.398 164.106 97.087 163.403 97.6214C162.7 98.1558 161.891 98.5495 160.977 98.8027C160.063 99.0558 158.952 99.1823 157.644 99.1823C156.252 99.1823 155 98.9152 153.889 98.3808C152.793 97.8464 151.928 97.0308 151.295 95.9339C150.662 94.823 150.346 93.4167 150.346 91.7151C150.346 89.212 151.225 87.3698 152.982 86.1885C154.74 84.9932 157.377 84.3323 160.893 84.2057L164.985 84.0791V83.0455C164.985 81.808 164.661 80.901 164.015 80.3244C163.368 79.7479 162.468 79.4596 161.315 79.4596C160.175 79.4596 159.057 79.6213 157.961 79.9448C156.864 80.2682 155.767 80.676 154.67 81.1682L152.539 76.8229C153.791 76.1619 155.19 75.6416 156.737 75.2619C158.298 74.8822 159.908 74.6924 161.568 74.6924ZM164.985 87.8339L162.496 87.9182C160.415 87.9745 158.966 88.3471 158.15 89.0362C157.349 89.7253 156.948 90.6323 156.948 91.7573C156.948 92.7417 157.236 93.4448 157.813 93.8667C158.389 94.2745 159.142 94.4784 160.07 94.4784C161.448 94.4784 162.608 94.0706 163.55 93.255C164.507 92.4393 164.985 91.2792 164.985 89.7745V87.8339Z" fill="#332C22"/>
<path d="M145.494 98.7606H138.976V73.3636H131.425C131.256 74.6855 131.073 76.1269 130.876 77.6878C130.679 79.2488 130.475 80.8238 130.265 82.4129C130.054 84.0019 129.829 85.5137 129.59 86.948C129.365 88.3824 129.14 89.641 128.915 90.7238C128.549 92.5239 128.05 94.0567 127.417 95.3223C126.798 96.5739 125.947 97.5301 124.864 98.1911C123.796 98.852 122.397 99.1825 120.667 99.1825C120.09 99.1825 119.535 99.1403 119 99.0559C118.48 98.9715 117.995 98.859 117.545 98.7184V93.3606C117.911 93.4871 118.276 93.5926 118.642 93.677C119.007 93.7473 119.408 93.7825 119.844 93.7825C120.407 93.7825 120.871 93.5996 121.236 93.234C121.616 92.8543 121.954 92.2145 122.249 91.3145C122.544 90.4004 122.839 89.1418 123.135 87.5387C123.261 86.8355 123.43 85.8441 123.641 84.5644C123.852 83.2707 124.091 81.759 124.358 80.0293C124.625 78.2855 124.9 76.3871 125.181 74.3339C125.476 72.2808 125.757 70.1433 126.025 67.9214H145.494V98.7606Z" fill="#332C22"/>
<path d="M290.392 35.1973C293.556 35.1973 295.982 35.8863 297.669 37.2645C299.357 38.6426 300.201 40.7379 300.201 43.5504V59.2654H295.708L294.463 56.0591H294.294C293.619 56.9028 292.93 57.5919 292.227 58.1263C291.524 58.6607 290.715 59.0544 289.801 59.3075C288.887 59.5607 287.776 59.6872 286.468 59.6872C285.076 59.6872 283.825 59.42 282.714 58.8857C281.617 58.3513 280.752 57.5357 280.119 56.4388C279.486 55.3278 279.17 53.9216 279.17 52.22C279.17 49.7169 280.049 47.8747 281.807 46.6934C283.564 45.4981 286.201 44.8372 289.717 44.7106L293.809 44.584V43.5504C293.809 42.3129 293.486 41.4059 292.839 40.8293C292.192 40.2528 291.292 39.9645 290.139 39.9645C289 39.9645 287.882 40.1262 286.785 40.4496C285.688 40.7731 284.591 41.1809 283.494 41.6731L281.364 37.3277C282.615 36.6668 284.014 36.1465 285.561 35.7668C287.122 35.3871 288.732 35.1973 290.392 35.1973ZM293.809 48.3387L291.32 48.4231C289.239 48.4794 287.79 48.852 286.975 49.5411C286.173 50.2302 285.772 51.1372 285.772 52.2622C285.772 53.2466 286.061 53.9497 286.637 54.3716C287.214 54.7794 287.966 54.9833 288.894 54.9833C290.272 54.9833 291.432 54.5755 292.375 53.7599C293.331 52.9442 293.809 51.7841 293.809 50.2794V48.3387Z" fill="#332C22"/>
<path d="M270.308 35.6821H277.395L268.05 46.9884L278.218 59.2651H270.919L261.279 47.3048V59.2651H254.846V35.6821H261.279V47.1361L270.308 35.6821Z" fill="#332C22"/>
<path d="M233.543 35.6821V44.7525H242.529V35.6821H248.963V59.2651H242.529V49.5408H233.543V59.2651H227.109V35.6821H233.543Z" fill="#332C22"/>
<path d="M203.061 35.6821V45.0056C203.061 45.4837 203.039 46.0884 202.997 46.8197C202.969 47.5369 202.927 48.2681 202.871 49.0134C202.814 49.7588 202.758 50.4267 202.702 51.0174C202.646 51.608 202.604 52.0088 202.575 52.2197L213.46 35.6821H221.201V59.2651H214.979V49.8572C214.979 49.0838 215.007 48.233 215.063 47.3048C215.119 46.3627 215.183 45.4767 215.253 44.647C215.323 43.8173 215.372 43.1915 215.4 42.7697L204.558 59.2651H196.838V35.6821H203.061Z" fill="#332C22"/>
<path d="M193.292 40.5126H185.572V59.2651H179.138V40.5126H171.396V35.6821H193.292V40.5126Z" fill="#332C22"/>
<path d="M158.197 35.1973C161.361 35.1973 163.786 35.8863 165.474 37.2645C167.161 38.6426 168.005 40.7379 168.005 43.5504V59.2654H163.512L162.268 56.0591H162.099C161.424 56.9028 160.735 57.5919 160.032 58.1263C159.329 58.6607 158.52 59.0544 157.606 59.3075C156.692 59.5607 155.581 59.6872 154.273 59.6872C152.881 59.6872 151.629 59.42 150.518 58.8857C149.421 58.3513 148.557 57.5357 147.924 56.4388C147.291 55.3278 146.975 53.9216 146.975 52.22C146.975 49.7169 147.854 47.8747 149.611 46.6934C151.369 45.4981 154.006 44.8372 157.522 44.7106L161.614 44.584V43.5504C161.614 42.3129 161.29 41.4059 160.643 40.8293C159.997 40.2528 159.097 39.9645 157.943 39.9645C156.804 39.9645 155.686 40.1262 154.589 40.4496C153.493 40.7731 152.396 41.1809 151.299 41.6731L149.168 37.3277C150.42 36.6668 151.819 36.1465 153.366 35.7668C154.927 35.3871 156.537 35.1973 158.197 35.1973ZM161.614 48.3387L159.125 48.4231C157.043 48.4794 155.595 48.852 154.779 49.5411C153.978 50.2302 153.577 51.1372 153.577 52.2622C153.577 53.2466 153.865 53.9497 154.442 54.3716C155.018 54.7794 155.771 54.9833 156.699 54.9833C158.077 54.9833 159.237 54.5755 160.179 53.7599C161.136 52.9442 161.614 51.7841 161.614 50.2794V48.3387Z" fill="#332C22"/>
<path d="M146.023 59.266H138.556L131.384 47.6011L124.212 59.266H117.209L127.44 43.3612L117.863 28.4268H125.077L131.722 39.5221L138.24 28.4268H145.285L135.603 43.7198L146.023 59.266Z" fill="#332C22"/>
</svg>
