<svg width="112" height="37" viewBox="0 0 112 37" fill="none" xmlns="http://www.w3.org/2000/svg">
<path d="M19.7082 23.4461C19.6635 23.3584 19.6294 23.2908 19.5945 23.2238C19.1639 22.3974 18.1264 21.8607 17.2051 21.9876C16.414 22.0966 15.7549 22.7543 15.5233 23.6829C15.2736 24.6842 15.4539 25.6495 15.8141 26.5881C16.4015 28.1186 17.3319 29.4276 18.4778 30.586C19.2704 31.3871 19.9024 31.3736 20.6825 30.5586C21.7654 29.4269 22.6443 28.1564 23.254 26.7082C23.6135 25.8551 23.8781 24.9763 23.9182 24.0432C23.9473 23.3694 23.8604 22.7204 23.4769 22.142C22.9898 21.4076 22.1885 21.1912 21.4005 21.579C20.9105 21.82 20.5232 22.18 20.2175 22.6265C20.0422 22.8825 19.889 23.1535 19.7082 23.4461ZM34.9607 27.7484C34.9427 29.0104 34.6583 30.2127 34.0772 31.3297C33.0911 33.225 31.6645 34.694 29.7546 35.6787C27.8719 36.6494 25.9426 36.7604 23.9712 35.9877C23.171 35.6739 22.3731 35.3499 21.5928 34.9903C20.1752 34.3367 18.7635 34.3429 17.3137 34.8858C16.2955 35.2672 15.262 35.6149 14.2179 35.9169C13.1366 36.2298 12.0235 36.3441 10.8952 36.2154C9.91986 36.1041 9.09587 35.6721 8.38195 35.0183C7.47141 34.1846 6.7428 33.2111 6.28306 32.063C5.69382 30.5917 5.83539 29.1723 6.69326 27.8317C7.36486 26.782 8.27164 25.9446 9.15008 25.0782C9.78865 24.4485 10.4138 23.8018 11.002 23.1254C11.6806 22.3446 12.0859 21.4025 12.4218 20.4345C12.7336 19.5364 13.0168 18.6285 13.3245 17.729C13.5468 17.0791 13.9548 16.5385 14.3579 15.9906C15.3284 14.6717 16.7127 14.0946 18.2412 13.7549C20.0531 13.3522 21.6321 13.8715 22.9795 15.0633C23.8085 15.7964 24.5262 16.6553 25.2979 17.4539C26.6123 18.8141 28.0066 20.0845 29.5686 21.1575C30.3462 21.6917 31.1622 22.1704 31.9334 22.7131C33.0367 23.4898 33.9676 24.4321 34.5356 25.683C34.8332 26.3383 34.9507 27.0327 34.9607 27.7484Z" fill="#332C22"/>
<path d="M17.1701 9.03654C17.1731 10.0467 16.9941 11.1375 16.5154 12.1624C16.0031 13.2585 15.2619 14.1256 14.0431 14.4629C13.0402 14.7407 12.1143 14.517 11.2511 13.9778C10.1156 13.2687 9.34766 12.2396 8.77655 11.056C7.94722 9.33715 7.62759 7.51875 7.79758 5.61846C7.89798 4.49592 8.21542 3.44666 8.84259 2.49227C9.9242 0.846406 11.8682 0.381212 13.5587 1.38276C14.6554 2.0326 15.4237 2.98127 16.0078 4.08937C16.8039 5.59949 17.1831 7.21459 17.1701 9.03654Z" fill="#332C22"/>
<path d="M28.9749 6.02681C28.9767 8.08511 28.5968 9.8121 27.6605 11.3922C27.1371 12.2758 26.4675 13.0279 25.5418 13.5116C24.1887 14.2187 22.6991 13.9597 21.6368 12.8539C20.7959 11.9786 20.3397 10.9131 20.0952 9.74702C19.673 7.73105 19.8909 5.76181 20.6048 3.84642C20.9503 2.9194 21.4551 2.07104 22.1806 1.38667C22.849 0.756047 23.6107 0.262092 24.5598 0.183267C25.7672 0.0829747 26.7152 0.594706 27.4731 1.49914C28.2543 2.43138 28.6444 3.53691 28.838 4.71697C28.9215 5.22578 28.9466 5.74416 28.9749 6.02681Z" fill="#332C22"/>
<path d="M0.666504 15.9489C0.68321 15.0296 0.858655 14.1654 1.40522 13.4157C2.11934 12.4357 3.11918 12.0743 4.30045 12.1483C5.4957 12.2232 6.51317 12.7396 7.42668 13.4679C9.05384 14.7654 10.13 16.4218 10.5581 18.4713C10.7476 19.3779 10.7617 20.2931 10.4445 21.1762C9.89925 22.6946 8.65534 23.4788 7.03416 23.3532C6.02555 23.2751 5.13777 22.8718 4.32318 22.2977C2.56729 21.06 1.4368 19.3776 0.864378 17.3211C0.741478 16.8796 0.72955 16.4071 0.666504 15.9489Z" fill="#332C22"/>
<path d="M37.6099 13.0813C37.3378 15.9366 36.1762 18.1437 33.9236 19.7334C33.298 20.1749 32.5944 20.4304 31.826 20.5083C30.5265 20.6401 29.345 19.9085 28.8564 18.6567C28.4271 17.5562 28.4521 16.4301 28.7222 15.3097C29.2419 13.153 30.4012 11.4109 32.223 10.1337C33.0295 9.56835 33.9445 9.33754 34.9283 9.41965C36.0721 9.51504 37.039 10.3732 37.3733 11.6352C37.5085 12.1455 37.547 12.6811 37.6099 13.0813Z" fill="#332C22"/>
<path d="M91.1653 22.5516H93.7938L90.3283 26.7447L94.0989 31.2976H91.3922L87.8171 26.862V31.2976H85.4312V22.5516H87.8171V26.7995L91.1653 22.5516Z" fill="#332C22"/>
<path d="M83.7808 26.909C83.7808 27.6391 83.6817 28.2858 83.4835 28.8491C83.2906 29.4123 83.0063 29.8895 82.6308 30.2807C82.2605 30.6666 81.812 30.9587 81.2853 31.1568C80.7638 31.355 80.1744 31.4541 79.5173 31.4541C78.9019 31.4541 78.3361 31.355 77.8198 31.1568C77.3087 30.9587 76.8627 30.6666 76.482 30.2807C76.1065 29.8895 75.8145 29.4123 75.6059 28.8491C75.4025 28.2858 75.3008 27.6391 75.3008 26.909C75.3008 25.939 75.4729 25.1176 75.8171 24.4448C76.1613 23.772 76.6515 23.2609 77.2878 22.9115C77.9241 22.5621 78.6829 22.3874 79.5643 22.3874C80.383 22.3874 81.108 22.5621 81.739 22.9115C82.3753 23.2609 82.8733 23.772 83.2332 24.4448C83.5983 25.1176 83.7808 25.939 83.7808 26.909ZM77.7337 26.909C77.7337 27.4827 77.7963 27.9651 77.9214 28.3562C78.0466 28.7474 78.2422 29.042 78.5082 29.2402C78.7741 29.4384 79.121 29.5375 79.5486 29.5375C79.971 29.5375 80.3126 29.4384 80.5734 29.2402C80.8394 29.042 81.0323 28.7474 81.1523 28.3562C81.2775 27.9651 81.34 27.4827 81.34 26.909C81.34 26.3301 81.2775 25.8503 81.1523 25.4696C81.0323 25.0837 80.8394 24.7942 80.5734 24.6013C80.3074 24.4083 79.9606 24.3118 79.533 24.3118C78.9019 24.3118 78.443 24.5282 78.1561 24.9611C77.8745 25.394 77.7337 26.0433 77.7337 26.909Z" fill="#332C22"/>
<path d="M73.6492 22.5516V31.2976H71.2554V24.3431H68.0872V31.2976H65.7012V22.5516H73.6492Z" fill="#332C22"/>
<path d="M59.9191 22.3717C61.0925 22.3717 61.9922 22.6273 62.618 23.1384C63.2438 23.6495 63.5567 24.4265 63.5567 25.4696V31.2976H61.8905L61.4289 30.1085H61.3663C61.116 30.4215 60.8605 30.677 60.5997 30.8752C60.3389 31.0734 60.0391 31.2194 59.7001 31.3133C59.3611 31.4071 58.9491 31.4541 58.464 31.4541C57.9477 31.4541 57.4836 31.355 57.0716 31.1568C56.6648 30.9586 56.344 30.6562 56.1094 30.2494C55.8747 29.8374 55.7573 29.3158 55.7573 28.6848C55.7573 27.7565 56.0833 27.0733 56.7352 26.6352C57.3871 26.1919 58.365 25.9468 59.6688 25.8998L61.1864 25.8529V25.4696C61.1864 25.0106 61.0665 24.6743 60.8266 24.4604C60.5867 24.2466 60.2529 24.1397 59.8252 24.1397C59.4028 24.1397 58.9882 24.1997 58.5814 24.3196C58.1746 24.4396 57.7678 24.5908 57.361 24.7733L56.5709 23.1618C57.0351 22.9167 57.554 22.7237 58.1277 22.5829C58.7066 22.4421 59.3037 22.3717 59.9191 22.3717ZM61.1864 27.2454L60.2633 27.2767C59.4914 27.2975 58.9543 27.4357 58.6518 27.6913C58.3545 27.9468 58.2059 28.2832 58.2059 28.7004C58.2059 29.0655 58.3128 29.3263 58.5266 29.4827C58.7405 29.634 59.0195 29.7096 59.3637 29.7096C59.8748 29.7096 60.305 29.5583 60.6544 29.2559C61.0091 28.9534 61.1864 28.5231 61.1864 27.9651V27.2454Z" fill="#332C22"/>
<path d="M53.9576 31.2977H51.5403V21.8789H48.7397C48.6772 22.3691 48.6094 22.9037 48.5363 23.4826C48.4633 24.0615 48.3877 24.6456 48.3095 25.2349C48.2313 25.8243 48.1478 26.3849 48.0592 26.9169C47.9757 27.4488 47.8923 27.9156 47.8088 28.3172C47.6732 28.9847 47.4881 29.5532 47.2534 30.0225C47.0239 30.4867 46.7084 30.8413 46.3068 31.0865C45.9105 31.3316 45.3915 31.4541 44.7501 31.4541C44.5362 31.4541 44.3302 31.4385 44.1321 31.4072C43.9391 31.3759 43.7592 31.3342 43.5923 31.282V29.295C43.7279 29.3419 43.8635 29.3811 43.9991 29.4124C44.1347 29.4384 44.2833 29.4515 44.445 29.4515C44.6536 29.4515 44.8257 29.3837 44.9613 29.2481C45.1021 29.1073 45.2273 28.87 45.3368 28.5362C45.4463 28.1972 45.5558 27.7304 45.6654 27.1359C45.7123 26.8751 45.7749 26.5075 45.8531 26.0329C45.9313 25.5531 46.02 24.9924 46.1191 24.3509C46.2182 23.7043 46.3199 23.0002 46.4242 22.2388C46.5337 21.4773 46.638 20.6846 46.7371 19.8606H53.9576V31.2977Z" fill="#332C22"/>
<path d="M107.695 7.72433C108.869 7.72433 109.769 7.97988 110.394 8.49098C111.02 9.00207 111.333 9.77914 111.333 10.8222V16.6502H109.667L109.205 15.4612H109.143C108.892 15.7741 108.637 16.0296 108.376 16.2278C108.115 16.426 107.815 16.572 107.476 16.6659C107.137 16.7598 106.725 16.8067 106.24 16.8067C105.724 16.8067 105.26 16.7076 104.848 16.5094C104.441 16.3113 104.12 16.0088 103.886 15.602C103.651 15.19 103.534 14.6684 103.534 14.0374C103.534 13.1091 103.86 12.4259 104.512 11.9878C105.163 11.5445 106.141 11.2994 107.445 11.2525L108.963 11.2055V10.8222C108.963 10.3633 108.843 10.0269 108.603 9.81304C108.363 9.59922 108.029 9.49231 107.602 9.49231C107.179 9.49231 106.765 9.55228 106.358 9.67223C105.951 9.79218 105.544 9.94342 105.137 10.126L104.347 8.51444C104.811 8.26933 105.33 8.07636 105.904 7.93555C106.483 7.79474 107.08 7.72433 107.695 7.72433ZM108.963 12.598L108.04 12.6293C107.268 12.6501 106.731 12.7883 106.428 13.0439C106.131 13.2994 105.982 13.6358 105.982 14.053C105.982 14.4181 106.089 14.6789 106.303 14.8353C106.517 14.9866 106.796 15.0622 107.14 15.0622C107.651 15.0622 108.081 14.911 108.431 14.6085C108.785 14.306 108.963 13.8757 108.963 13.3177V12.598Z" fill="#332C22"/>
<path d="M100.247 7.90425H102.876L99.4103 12.0973L103.181 16.6502H100.474L96.8992 12.2147V16.6502H94.5132V7.90425H96.8992V12.1521L100.247 7.90425Z" fill="#332C22"/>
<path d="M86.6125 7.90425V11.2681H89.9451V7.90425H92.3311V16.6502H89.9451V13.0439H86.6125V16.6502H84.2266V7.90425H86.6125Z" fill="#332C22"/>
<path d="M75.3078 7.90425V11.362C75.3078 11.5393 75.2999 11.7635 75.2843 12.0347C75.2739 12.3007 75.2582 12.5719 75.2373 12.8483C75.2165 13.1247 75.1956 13.3724 75.1748 13.5915C75.1539 13.8105 75.1383 13.9592 75.1278 14.0374L79.1644 7.90425H82.0354V16.6502H79.7277V13.1612C79.7277 12.8744 79.7381 12.5589 79.759 12.2147C79.7798 11.8652 79.8033 11.5367 79.8294 11.229C79.8555 10.9213 79.8737 10.6892 79.8841 10.5327L75.8632 16.6502H73V7.90425H75.3078Z" fill="#332C22"/>
<path d="M71.6861 9.69569H68.8229V16.6502H66.4369V9.69569H63.5659V7.90425H71.6861V9.69569Z" fill="#332C22"/>
<path d="M58.6681 7.72433C59.8416 7.72433 60.7412 7.97988 61.367 8.49098C61.9928 9.00207 62.3058 9.77914 62.3058 10.8222V16.6502H60.6395L60.1779 15.4612H60.1154C59.865 15.7741 59.6095 16.0296 59.3487 16.2278C59.0879 16.426 58.7881 16.572 58.4491 16.6659C58.1101 16.7598 57.6981 16.8067 57.2131 16.8067C56.6968 16.8067 56.2326 16.7076 55.8206 16.5094C55.4138 16.3113 55.0931 16.0088 54.8584 15.602C54.6237 15.19 54.5063 14.6684 54.5063 14.0374C54.5063 13.1091 54.8323 12.4259 55.4842 11.9878C56.1361 11.5445 57.114 11.2994 58.4178 11.2525L59.9354 11.2055V10.8222C59.9354 10.3633 59.8155 10.0269 59.5756 9.81304C59.3357 9.59922 59.0019 9.49231 58.5742 9.49231C58.1518 9.49231 57.7372 9.55228 57.3304 9.67223C56.9236 9.79218 56.5168 9.94342 56.11 10.126L55.3199 8.51444C55.7841 8.26933 56.303 8.07636 56.8767 7.93555C57.4556 7.79474 58.0527 7.72433 58.6681 7.72433ZM59.9354 12.598L59.0123 12.6293C58.2405 12.6501 57.7033 12.7883 57.4008 13.0439C57.1035 13.2994 56.9549 13.6358 56.9549 14.053C56.9549 14.4181 57.0618 14.6789 57.2756 14.8353C57.4895 14.9866 57.7685 15.0622 58.1127 15.0622C58.6238 15.0622 59.0541 14.911 59.4035 14.6085C59.7581 14.306 59.9354 13.8757 59.9354 13.3177V12.598Z" fill="#332C22"/>
<path d="M54.1548 16.6503H51.3855L48.7257 12.3242L46.0659 16.6503H43.4688L47.2629 10.7518L43.7113 5.21321H46.3867L48.8509 9.32805L51.2682 5.21321H53.881L50.2903 10.8848L54.1548 16.6503Z" fill="#332C22"/>
</svg>
