<svg xmlns="http://www.w3.org/2000/svg" aria-hidden="true" style="position:absolute;width:0;height:0;overflow:hidden">
  <defs>
    <symbol id="icon-logo" viewBox="0 0 32 32">
      <path d="M16.596 20.165c-.038-.074-.066-.131-.096-.187-.363-.696-1.236-1.148-2.012-1.041-.666.092-1.221.646-1.416 1.428-.21.843-.058 1.656.245 2.446.495 1.289 1.278 2.391 2.243 3.367.667.675 1.2.663 1.857-.023.912-.953 1.652-2.023 2.165-3.242.303-.718.526-1.458.559-2.244.024-.567-.049-1.114-.372-1.601-.41-.618-1.085-.801-1.749-.474a2.576 2.576 0 0 0-.996.882c-.148.216-.277.444-.429.69zm12.845 3.623a6.664 6.664 0 0 1-.744 3.016c-.83 1.596-2.032 2.833-3.64 3.662-1.585.817-3.21.911-4.87.26a36.974 36.974 0 0 1-2.003-.84c-1.194-.55-2.383-.545-3.603-.088a35.7 35.7 0 0 1-2.607.868 7.085 7.085 0 0 1-2.798.251c-.821-.094-1.515-.458-2.116-1.008-.767-.702-1.38-1.522-1.768-2.489-.496-1.239-.377-2.434.345-3.563.566-.884 1.329-1.589 2.069-2.319a29.493 29.493 0 0 0 1.559-1.644c.571-.658.913-1.451 1.196-2.266.263-.756.501-1.521.76-2.278.187-.547.531-1.003.87-1.464.817-1.111 1.983-1.597 3.27-1.883 1.526-.339 2.855.098 3.99 1.102.698.617 1.302 1.341 1.952 2.013 1.107 1.145 2.281 2.215 3.596 3.119.655.45 1.342.853 1.991 1.31.929.654 1.713 1.448 2.191 2.501.251.552.35 1.137.358 1.739zM14.459 8.031c.003.851-.148 1.769-.551 2.632-.431.923-1.056 1.653-2.082 1.937-.845.234-1.624.046-2.351-.409-.956-.597-1.603-1.464-2.084-2.46a8.592 8.592 0 0 1-.824-4.579c.085-.945.352-1.829.88-2.633.911-1.386 2.548-1.778 3.971-.934.924.547 1.571 1.346 2.062 2.279.67 1.272.99 2.632.979 4.166zM24.4 5.496c.002 1.733-.318 3.188-1.107 4.518-.441.744-1.005 1.377-1.784 1.785-1.139.595-2.394.377-3.288-.554-.708-.737-1.092-1.634-1.298-2.616-.356-1.698-.172-3.356.429-4.969.291-.781.716-1.495 1.327-2.071.563-.531 1.204-.947 2.004-1.013 1.017-.084 1.815.346 2.453 1.108.658.785.986 1.716 1.149 2.71.07.428.091.865.115 1.103zM.561 13.852c.014-.774.162-1.502.622-2.133.601-.825 1.443-1.13 2.438-1.067 1.007.063 1.863.498 2.633 1.111 1.37 1.093 2.276 2.487 2.637 4.213.16.763.171 1.534-.096 2.278-.459 1.279-1.507 1.939-2.872 1.833-.849-.066-1.597-.405-2.283-.889-1.479-1.042-2.431-2.459-2.913-4.191-.104-.372-.114-.77-.167-1.156zM31.672 11.437c-.229 2.404-1.207 4.263-3.104 5.602a3.658 3.658 0 0 1-1.766.653c-1.094.111-2.089-.505-2.501-1.559-.362-.927-.34-1.875-.113-2.819.438-1.816 1.414-3.283 2.948-4.359.679-.476 1.45-.67 2.278-.601.963.08 1.777.803 2.059 1.866.114.43.146.881.199 1.218z"/>
    </symbol>
    <symbol id="icon-menu" viewBox="0 0 32 32">
      <path d="M4.936 24.295c-.321 0-.59-.11-.808-.329s-.327-.493-.327-.82c0-.322.109-.591.327-.807s.488-.323.808-.323h22.127c.321 0 .591.11.812.329s.331.49.331.812a1.121 1.121 0 0 1-1.143 1.137H4.936zm0-7.159c-.321 0-.59-.11-.808-.329s-.327-.49-.327-.812c0-.322.109-.591.327-.806s.488-.323.808-.323h22.127c.321 0 .591.11.812.329s.331.49.331.812c0 .322-.11.591-.331.806s-.492.323-.812.323H4.936zm0-7.152c-.321 0-.59-.11-.808-.329s-.327-.493-.327-.82c0-.322.109-.591.327-.806s.488-.323.808-.323h22.127c.321 0 .591.11.812.329s.331.49.331.812a1.117 1.117 0 0 1-1.143 1.138H4.936z"/>
    </symbol>
    <symbol id="icon-star-filled" viewBox="0 0 32 32">
      <path d="M14.761 4.816c.458-1.089 2.019-1.089 2.478 0l2.705 6.425c.193.459.63.772 1.132.812l7.021.556c1.19.094 1.672 1.561.766 2.328l-5.349 4.527a1.315 1.315 0 0 0-.432 1.314l1.634 6.769c.277 1.147-.986 2.053-2.004 1.439l-6.011-3.627a1.357 1.357 0 0 0-1.399 0l-6.011 3.627c-1.018.615-2.281-.292-2.004-1.439l1.634-6.769a1.315 1.315 0 0 0-.432-1.314l-5.35-4.527c-.906-.767-.424-2.234.766-2.328l7.021-.556c.502-.04.938-.353 1.132-.812l2.705-6.425z"/>
    </symbol>
<symbol id="icon-star-half" viewBox="0 0 24 24">
  <path d="M11.5312 3.80664C11.7032 3.39816 12.2968 3.39816 12.4688 3.80664L14.4971 8.625C14.7155 9.14358 15.2076 9.49471 15.7676 9.53906L21.0332 9.95605C21.4909 9.99232 21.6545 10.5412 21.3242 10.8213L17.3115 14.2168C16.8819 14.5804 16.6919 15.1542 16.8242 15.7021L18.0508 20.7783C18.1502 21.1902 17.6892 21.5518 17.291 21.3115H17.29L12.7832 18.5918C12.3023 18.3016 11.6977 18.3016 11.2168 18.5918L6.70898 21.3115C6.31078 21.5518 5.84983 21.1902 5.94922 20.7783L7.17578 15.7021C7.30809 15.1543 7.11814 14.5805 6.68848 14.2168L2.67578 10.8213C2.34544 10.5412 2.5091 9.99231 2.9668 9.95605L8.23242 9.53906C8.79243 9.49471 9.28456 9.14369 9.50293 8.625L11.5312 3.80664Z" fill="url(#paint0_linear_8242_16266)" stroke="#02060A" />
  <defs>
    <linearGradient id="paint0_linear_8242_16266" x1="2" y1="12.3716" x2="22" y2="12.3716" gradientUnits="userSpaceOnUse">
      <stop offset="0.5" stop-color="#02060A" />
      <stop offset="0.5" stop-color="#02060A" stop-opacity="0" />
    </linearGradient>
  </defs>
</symbol>
    <symbol id="icon-star-outline" viewBox="0 0 32 32">
      <path stroke-width="2.667" d="m16.01 5.335 2.704 6.424a2.674 2.674 0 0 0 2.255 1.624l7.011.555-5.329 4.509a2.652 2.652 0 0 0-.866 2.646l1.63 6.754-.005.004-.01-.005-6.012-3.628a2.687 2.687 0 0 0-2.776 0L8.6 27.846l-.01.005-.007-.004 1.631-6.754a2.647 2.647 0 0 0-.728-2.519l-.138-.126-5.331-4.509 7.012-.555a2.674 2.674 0 0 0 2.255-1.624l2.703-6.424.012-.001.01.001z"/>
    </symbol>
    <symbol id="icon-close" viewBox="0 0 32 32">
      <path stroke-width="1.333" d="M23.466 7.9c.219 0 .355.065.462.172s.172.242.172.461c0 .219-.065.355-.172.462L16.923 16l7.005 7.004c.107.107.172.243.172.462s-.065.355-.172.462-.243.172-.462.172c-.219 0-.355-.065-.462-.172L16 16.923l-7.005 7.005c-.107.107-.243.172-.462.172s-.354-.065-.461-.172c-.107-.107-.172-.243-.172-.462s.065-.355.172-.462L15.076 16 8.072 8.995c-.107-.107-.172-.243-.172-.462s.065-.354.172-.461.242-.172.461-.172c.219 0 .355.065.462.172L16 15.076l7.004-7.004c.107-.107.243-.172.462-.172z"/>
    </symbol>
    <symbol id="icon-add" viewBox="0 0 32 32">
      <path d="M14.864 17.136H7.603c-.321 0-.59-.11-.808-.329s-.327-.49-.327-.812c0-.322.109-.591.327-.806s.488-.323.808-.323h7.261V7.605c0-.32.11-.591.329-.812s.49-.332.812-.332c.322 0 .591.111.806.332s.323.492.323.812v7.261h7.261c.32 0 .591.11.812.329s.332.49.332.812c0 .322-.111.591-.332.806s-.492.323-.812.323h-7.261v7.261c0 .321-.11.59-.329.808s-.49.327-.812.327c-.322 0-.591-.109-.806-.327s-.323-.488-.323-.808v-7.261z"/>
    </symbol>
    <symbol id="icon-arrow_back" viewBox="0 0 32 32">
      <path stroke-width="1.333" d="M16.01 6.249c.114 0 .212.035.322.145a.45.45 0 0 1 .145.332.425.425 0 0 1-.145.324L7.85 15.532h17.88a.451.451 0 0 1 .477.469c0 .16-.046.255-.129.337a.457.457 0 0 1-.348.132H7.85l8.474 8.473c.11.11.147.212.148.335v.001a.4.4 0 0 1-.074.246l-.069.082a.415.415 0 0 1-.323.142.457.457 0 0 1-.341-.151l-9.264-9.264a.542.542 0 0 1-.121-.167v-.001c-.02-.048-.031-.102-.031-.165s.012-.116.031-.163v-.001a.554.554 0 0 1 .121-.167l9.267-9.267a.466.466 0 0 1 .342-.152z"/>
    </symbol>
    <symbol id="icon-arrow_forward" viewBox="0 0 32 32">
      <path stroke-width="1.333" d="M15.993 6.253a.432.432 0 0 1 .259.081l.082.07 9.264 9.264a.542.542 0 0 1 .121.167v.001c.02.048.031.102.031.165s-.012.116-.031.163v.001a.567.567 0 0 1-.121.167l-9.272 9.264c-.122.12-.227.155-.337.155-.108 0-.204-.033-.315-.147l-.007-.007-.069-.081c-.056-.079-.075-.157-.075-.243s.02-.163.075-.242l.069-.081 8.482-8.482H6.269c-.163 0-.259-.047-.34-.128h-.001a.44.44 0 0 1-.128-.341c0-.162.046-.26.128-.341h.001c.081-.081.177-.127.34-.128h17.88l-8.474-8.474a.467.467 0 0 1-.141-.246l-.008-.09a.423.423 0 0 1 .141-.326l.001-.001a.42.42 0 0 1 .324-.142z"/>
    </symbol>
    <symbol id="icon-Instagram" viewBox="0 0 32 32">
      <path d="M15.998 6.161c3.206 0 3.585.014 4.846.071 1.172.052 1.804.248 2.226.412.558.216.961.478 1.378.895.422.422.679.82.9 1.378.164.422.361 1.059.412 2.226.056 1.266.071 1.645.071 4.847s-.014 3.585-.071 4.847c-.052 1.172-.248 1.804-.412 2.227a3.702 3.702 0 0 1-.895 1.377c-.422.422-.82.679-1.378.9-.422.164-1.06.361-2.226.412-1.266.056-1.645.071-4.847.071s-3.585-.014-4.847-.071c-1.172-.052-1.804-.248-2.226-.412a3.714 3.714 0 0 1-1.378-.895 3.767 3.767 0 0 1-.9-1.378c-.164-.422-.361-1.06-.412-2.226-.056-1.266-.071-1.645-.071-4.847s.014-3.585.071-4.847c.052-1.172.248-1.804.412-2.226.216-.558.478-.961.895-1.378.422-.422.82-.679 1.378-.9.422-.164 1.059-.361 2.226-.412 1.261-.056 1.641-.071 4.847-.071h.001zm0-2.16c-3.258 0-3.665.014-4.945.071-1.275.056-2.151.262-2.91.558a5.847 5.847 0 0 0-2.127 1.387A5.883 5.883 0 0 0 4.629 8.14c-.295.764-.502 1.636-.558 2.91C4.015 12.335 4 12.742 4 15.999s.014 3.665.071 4.945c.056 1.275.262 2.151.558 2.91a5.86 5.86 0 0 0 1.387 2.127 5.876 5.876 0 0 0 2.123 1.383c.764.295 1.636.502 2.91.558 1.279.056 1.687.071 4.945.071s3.666-.014 4.945-.071c1.275-.056 2.151-.262 2.91-.558.787-.305 1.458-.717 2.123-1.383s1.078-1.336 1.383-2.123c.295-.764.502-1.635.558-2.91.056-1.279.071-1.687.071-4.945s-.014-3.665-.071-4.945c-.056-1.275-.262-2.151-.558-2.91a5.622 5.622 0 0 0-1.373-2.133 5.876 5.876 0 0 0-2.123-1.383c-.764-.295-1.635-.502-2.91-.558-1.284-.061-1.692-.075-4.949-.075L15.999 4z"/>
      <path d="M15.997 9.836a6.164 6.164 0 1 0 6.163 6.163 6.164 6.164 0 0 0-6.163-6.163zm0 10.161a3.998 3.998 0 1 1 0-7.996 3.998 3.998 0 0 1 0 7.996zM23.842 9.592a1.439 1.439 0 1 1-2.877 0 1.439 1.439 0 0 1 2.877 0z"/>
    </symbol>
    <symbol id="icon-Facebook" viewBox="0 0 32 32">
      <path d="M29.333 16.405C29.333 8.996 23.364 2.99 16 2.99S2.667 8.996 2.667 16.405c0 6.696 4.876 12.245 11.25 13.252v-9.374h-3.385v-3.878h3.385V13.45c0-3.362 1.991-5.219 5.036-5.219 1.459 0 2.985.262 2.985.262v3.301h-1.681c-1.656 0-2.173 1.034-2.173 2.095v2.516h3.698l-.591 3.878h-3.107v9.374c6.374-1.006 11.25-6.556 11.25-13.252z"/>
    </symbol>
  </defs>
</svg>
